<svg xmlns="http://www.w3.org/2000/svg" xmlns:xlink="http://www.w3.org/1999/xlink" viewBox="0 0 304.55 182.97"><defs><style>.cls-1{fill:none;}.cls-2{clip-path:url(#clip-path);}.cls-3{fill:url(#linear-gradient);}.cls-4{fill:url(#linear-gradient-2);}.cls-5{clip-path:url(#clip-path-3);}.cls-6{clip-path:url(#clip-path-4);}.cls-7{clip-path:url(#clip-path-5);}.cls-8{clip-path:url(#clip-path-6);}.cls-9{clip-path:url(#clip-path-7);}.cls-10{clip-path:url(#clip-path-8);}.cls-11{clip-path:url(#clip-path-9);}.cls-12{clip-path:url(#clip-path-10);}.cls-13{clip-path:url(#clip-path-11);}.cls-14{clip-path:url(#clip-path-12);}.cls-15{clip-path:url(#clip-path-13);}.cls-16{clip-path:url(#clip-path-14);}.cls-17{clip-path:url(#clip-path-15);}.cls-18{clip-path:url(#clip-path-16);}.cls-19{clip-path:url(#clip-path-17);}.cls-20{clip-path:url(#clip-path-18);}.cls-21{clip-path:url(#clip-path-19);}.cls-22{clip-path:url(#clip-path-20);}.cls-23{clip-path:url(#clip-path-21);}.cls-24{fill:url(#linear-gradient-21);}.cls-25{fill:#9d9d9c;}</style><clipPath id="clip-path" transform="translate(35 13.97)"><path class="cls-1" d="M118.65,116.54A39.64,39.64,0,0,0,158.29,76.9c0-1.36-.06-2.7-.17-4-.67-24.87,7-26.79,7-26.79s-1.72,1-3.38,5.62-1.51,9.3-1,9.3c1.82,0,8.08-3.61,8.94-8.89A40.9,40.9,0,0,1,173,41.65C158.52,44,155.52,53.5,155,59c-3.81-10.4-10.62-20.3-18.88-31.37C125.9,13.89,120.66,4,119,.52L118.72,0c-1.25,16.86-6.78,24.32-6.78,40.24,0,17.94,6.56,29.49,13.73,35.89,3.87,3.45,14.36,9.52,16.85,5.3,3-6.24,1.57-17.16-5.77-26.53s-11.39-23.08-11.39-23.08C138,53.5,150,61,150,75.19c0,19.31-12.06,34.48-31.37,34.48a35,35,0,0,1-35-35c0-11.74,8-28.85,19.52-46A119.41,119.41,0,0,0,113.08,10c-2.81,4.65-6.71,10.63-11.91,17.59C88.39,44.77,79,59.12,79,76.9A39.64,39.64,0,0,0,118.65,116.54Z"/></clipPath><linearGradient id="linear-gradient" x1="-35.48" y1="2085.73" x2="209.35" y2="2234.42" gradientTransform="matrix(1, 0, 0, -1, 35, 2270.35)" gradientUnits="userSpaceOnUse"><stop offset="0" stop-color="#209ecc"/><stop offset="1" stop-color="#52ae32"/></linearGradient><linearGradient id="linear-gradient-2" x1="-29.06" y1="2089.63" x2="153.4" y2="2200.44" xlink:href="#linear-gradient"/><clipPath id="clip-path-3" transform="translate(35 13.97)"><path class="cls-1" d="M130.36,103.12s-31.21,9.36-41.82-26.68C88.54,76.44,91.51,115.29,130.36,103.12Z"/></clipPath><clipPath id="clip-path-4" transform="translate(35 13.97)"><polygon class="cls-1" points="98.41 78.02 100.26 85.16 102.06 78.01 109.19 76.15 102.04 74.36 100.19 67.22 98.39 74.37 91.26 76.23 98.41 78.02"/></clipPath><clipPath id="clip-path-5" transform="translate(35 13.97)"><polygon class="cls-1" points="92.13 61.66 91.01 66.11 86.58 67.26 91.02 68.38 92.18 72.81 93.29 68.36 97.72 67.22 93.28 66.09 92.13 61.66"/></clipPath><clipPath id="clip-path-6" transform="translate(35 13.97)"><polygon class="cls-1" points="109.47 53.79 108.79 56.49 106.11 57.19 108.81 57.87 109.5 60.56 110.18 57.86 112.87 57.16 110.18 56.48 109.47 53.79"/></clipPath><clipPath id="clip-path-7" transform="translate(35 13.97)"><path class="cls-1" d="M6.83,131.7c-2.06-.78-3-1.23-3-2.25,0-.83.75-1.54,2.32-1.54a7.53,7.53,0,0,1,3.34.76l.81-2.91A9.76,9.76,0,0,0,6.26,125c-3.77,0-6,2.08-6,4.81,0,2.33,1.73,3.79,4.38,4.72,1.92.69,2.69,1.26,2.69,2.25s-.89,1.74-2.55,1.74a9.38,9.38,0,0,1-4-1l-.73,3a10.44,10.44,0,0,0,4.53,1c4.38,0,6.45-2.28,6.45-5C11,134.22,9.65,132.75,6.83,131.7Z"/></clipPath><clipPath id="clip-path-8" transform="translate(35 13.97)"><path class="cls-1" d="M21.06,141.43a10.32,10.32,0,0,0,4.1-.69l-.55-2.82a9.12,9.12,0,0,1-3,.52c-3.23,0-5.13-2-5.13-5.21,0-3.56,2.23-5.3,5.1-5.3a7.92,7.92,0,0,1,3,.59l.74-2.86a9.29,9.29,0,0,0-3.94-.71c-4.84,0-8.72,3-8.72,8.49C12.69,138,15.53,141.43,21.06,141.43Z"/></clipPath><clipPath id="clip-path-9" transform="translate(35 13.97)"><polygon class="cls-1" points="37.11 125.21 37.11 131.35 31.16 131.35 31.16 125.21 27.53 125.21 27.53 141.19 31.16 141.19 31.16 134.51 37.11 134.5 37.11 141.19 40.72 141.19 40.72 125.2 37.11 125.21"/></clipPath><clipPath id="clip-path-10" transform="translate(35 13.97)"><path class="cls-1" d="M50.92,125c-4.72,0-7.78,3.57-7.78,8.37,0,4.55,2.77,8.13,7.51,8.13s7.86-3.18,7.86-8.42C58.51,128.63,55.83,125,50.92,125Zm-.07,13.64c-2.43,0-3.9-2.21-3.9-5.35s1.42-5.43,3.87-5.43,3.86,2.47,3.86,5.34C54.69,136.26,53.29,138.58,50.85,138.59Z"/></clipPath><clipPath id="clip-path-11" transform="translate(35 13.97)"><path class="cls-1" d="M67.92,125c-4.72,0-7.78,3.57-7.78,8.37,0,4.55,2.78,8.13,7.52,8.13s7.85-3.18,7.85-8.42C75.51,128.63,72.83,125,67.92,125Zm-.07,13.64c-2.42,0-3.89-2.21-3.89-5.35s1.42-5.43,3.86-5.42,3.87,2.46,3.87,5.33C71.69,136.26,70.29,138.59,67.85,138.59Z"/></clipPath><clipPath id="clip-path-12" transform="translate(35 13.97)"><path class="cls-1" d="M81.2,136.38c0-2.62,0-4.87-.14-7l.07,0A61.68,61.68,0,0,0,83.9,135l3.42,6.16h3.79v-16H87.8v4.67a61,61,0,0,0,.31,6.66H88a46.57,46.57,0,0,0-2.61-5.48l-3.31-5.85H77.88v16H81.2v-4.81Z"/></clipPath><clipPath id="clip-path-13" transform="translate(35 13.97)"><path class="cls-1" d="M110.65,125.21h-4.72l-1.7,5.31c-.52,1.77-1.07,3.89-1.51,5.74h-.08c-.36-1.87-.85-3.86-1.35-5.72l-1.57-5.33H94.91l-1,16h3.34l.29-6.07c.12-2,.19-4.46.28-6.62h0c.38,2.09.92,4.37,1.44,6.24l1.71,6.18h2.82l2-6.24c.61-1.87,1.28-4.15,1.78-6.19h.07c0,2.32.06,4.65.14,6.57l.24,6.12h3.53Z"/></clipPath><clipPath id="clip-path-14" transform="translate(35 13.97)"><path class="cls-1" d="M118,125.21l-4.88,16h3.73l1.15-4.1h4.57l1.23,4.1h3.9l-5-16Zm.52,9.18,1-3.4c.26-.92.49-2.13.73-3.08h0c.23,1,.52,2.14.8,3.08l1,3.4Z"/></clipPath><clipPath id="clip-path-15" transform="translate(35 13.97)"><path class="cls-1" d="M133.51,125.21l-4.88,16h3.75l1.13-4.1h4.58l1.24,4.1h3.88l-5-16Zm.52,9.17,1-3.39c.26-.92.49-2.13.74-3.08h0c.23,1,.52,2.13.81,3.08l1,3.39Z"/></clipPath><clipPath id="clip-path-16" transform="translate(35 13.97)"><path class="cls-1" d="M152.87,132l5.29-6.8h-4.44l-3.62,5.31c-.37.57-.74,1.14-1.1,1.75h-.07v-7.06h-3.58v16h3.58V136l1.38-1.68,3.91,6.9h4.22Z"/></clipPath><clipPath id="clip-path-17" transform="translate(35 13.97)"><polygon class="cls-1" points="168.33 125.2 164.7 125.21 164.7 141.19 174.69 141.19 174.69 138.15 168.33 138.16 168.33 125.2"/></clipPath><clipPath id="clip-path-18" transform="translate(35 13.97)"><path class="cls-1" d="M182.7,141.45c4.67,0,7.85-3.18,7.85-8.42,0-4.4-2.68-8.08-7.59-8.08-4.72,0-7.77,3.57-7.77,8.37C175.19,137.87,178,141.45,182.7,141.45Zm.16-13.64c2.49,0,3.87,2.47,3.87,5.34,0,3.11-1.39,5.44-3.84,5.43s-3.89-2.2-3.89-5.34S180.42,127.82,182.86,127.81Z"/></clipPath><clipPath id="clip-path-19" transform="translate(35 13.97)"><path class="cls-1" d="M200,125c-4.72,0-7.79,3.57-7.79,8.37,0,4.55,2.78,8.13,7.52,8.13s7.85-3.18,7.85-8.42C207.55,128.63,204.87,125,200,125Zm-.08,13.64c-2.42,0-3.88-2.21-3.88-5.34s1.42-5.44,3.86-5.44,3.86,2.47,3.86,5.34C203.73,136.26,202.34,138.59,199.89,138.59Z"/></clipPath><clipPath id="clip-path-20" transform="translate(35 13.97)"><path class="cls-1" d="M219.84,129.88a61.12,61.12,0,0,0,.3,6.66h-.06a46.57,46.57,0,0,0-2.61-5.48l-3.32-5.85h-4.22v16h3.32v-4.81c0-2.62-.05-4.87-.15-7l.08,0A59.2,59.2,0,0,0,216,135l3.42,6.16h3.79v-16h-3.32Z"/></clipPath><clipPath id="clip-path-21" transform="translate(35 13.97)"><polygon class="cls-1" points="236.14 125.21 223.85 125.21 223.85 128.24 228.14 128.24 228.14 141.19 231.77 141.19 231.77 128.24 236.14 128.24 236.14 125.21"/></clipPath><linearGradient id="linear-gradient-21" x1="-30.29" y1="2089.63" x2="152.17" y2="2200.44" xlink:href="#linear-gradient"/></defs><g id="Layer_2" data-name="Layer 2"><g id="Laag_1" data-name="Laag 1"><g class="cls-2"><rect class="cls-3" x="1.23" width="303.32" height="182.97"/></g><g class="cls-2"><rect class="cls-4" x="1.23" width="303.32" height="182.97"/></g><g class="cls-5"><rect class="cls-4" x="1.23" width="303.32" height="182.97"/></g><g class="cls-6"><rect class="cls-4" x="1.23" width="303.32" height="182.97"/></g><g class="cls-7"><rect class="cls-4" x="1.23" width="303.32" height="182.97"/></g><g class="cls-8"><rect class="cls-4" x="1.23" width="303.32" height="182.97"/></g><g class="cls-9"><rect class="cls-4" x="1.23" width="303.32" height="182.97"/></g><g class="cls-10"><rect class="cls-4" x="1.23" width="303.32" height="182.97"/></g><g class="cls-11"><rect class="cls-4" x="1.23" width="303.32" height="182.97"/></g><g class="cls-12"><rect class="cls-4" x="1.23" width="303.32" height="182.97"/></g><g class="cls-13"><rect class="cls-4" x="1.23" width="303.32" height="182.97"/></g><g class="cls-14"><rect class="cls-4" x="1.23" width="303.32" height="182.97"/></g><g class="cls-15"><rect class="cls-4" x="1.23" width="303.32" height="182.97"/></g><g class="cls-16"><rect class="cls-4" x="1.23" width="303.32" height="182.97"/></g><g class="cls-17"><rect class="cls-4" x="1.23" width="303.32" height="182.97"/></g><g class="cls-18"><rect class="cls-4" x="1.23" width="303.32" height="182.97"/></g><g class="cls-19"><rect class="cls-4" x="1.23" width="303.32" height="182.97"/></g><g class="cls-20"><rect class="cls-4" x="1.23" width="303.32" height="182.97"/></g><g class="cls-21"><rect class="cls-4" x="1.23" width="303.32" height="182.97"/></g><g class="cls-22"><rect class="cls-4" x="1.23" width="303.32" height="182.97"/></g><g class="cls-23"><rect class="cls-24" width="303.32" height="182.97"/></g><path class="cls-25" d="M25.3,151.27c0,1.3-.57,1.88-1.44,1.88s-1.37-.56-1.37-1.88v-3.49h-.77v3.47c0,1.83.91,2.51,2.11,2.51s2.23-.74,2.23-2.55v-3.43H25.3Z" transform="translate(35 13.97)"/><path class="cls-25" d="M34.23,150.75c-.18.74-.35,1.39-.47,2h0c-.09-.62-.24-1.32-.41-2l-.72-3h-.79l-.79,3c-.2.75-.38,1.45-.48,2h0c-.1-.57-.26-1.3-.43-2l-.71-3h-.81l1.5,5.88h.8l.84-3.06c.22-.76.35-1.34.46-1.92h0a19.27,19.27,0,0,0,.39,1.92l.74,3.07h.8l1.66-5.89H35Z" transform="translate(35 13.97)"/><path class="cls-25" d="M46.38,147.78l-1.05,2.85c-.26.74-.47,1.39-.62,2h0c-.15-.62-.35-1.27-.6-2l-1-2.85h-1l-.41,5.89h.72l.16-2.52c0-.88.1-1.87.12-2.6h0c.16.7.41,1.45.68,2.29l1,2.8h.57l1-2.85c.3-.82.54-1.55.75-2.24h0c0,.73,0,1.72.09,2.54l.15,2.58h.74l-.37-5.88Z" transform="translate(35 13.97)"/><polygon class="cls-25" points="85.64 167.63 86.4 167.64 86.4 161.75 85.64 161.75 85.64 167.63"/><polygon class="cls-25" points="90.24 161.75 89.48 161.75 89.48 167.64 92.75 167.64 92.75 167 90.24 167 90.24 161.75"/><polygon class="cls-25" points="95.34 167.63 96.11 167.64 96.11 161.75 95.34 161.75 95.34 167.63"/><polygon class="cls-25" points="99.94 164.88 102.23 164.88 102.23 164.25 99.94 164.25 99.94 162.38 102.36 162.39 102.36 161.75 99.18 161.75 99.18 167.64 102.5 167.63 102.5 167 99.94 167 99.94 164.88"/><path class="cls-25" d="M73.79,151.27c0,1.3-.56,1.88-1.43,1.88S71,152.59,71,151.27v-3.49h-.77v3.47c0,1.83.9,2.51,2.11,2.51s2.23-.74,2.23-2.55v-3.43h-.77Z" transform="translate(35 13.97)"/><path class="cls-25" d="M80.13,150.51v0a1.39,1.39,0,0,0,1-1.29,1.23,1.23,0,0,0-.49-1,2.44,2.44,0,0,0-1.61-.42,7.32,7.32,0,0,0-1.39.12v5.79a8,8,0,0,0,1.18.07,2.92,2.92,0,0,0,2-.55,1.58,1.58,0,0,0,.5-1.18A1.52,1.52,0,0,0,80.13,150.51Zm-1.75-2.14a3.41,3.41,0,0,1,.68,0c.77,0,1.29.26,1.29.95s-.47,1-1.27,1h-.7v-1.9Zm.64,4.75a3.78,3.78,0,0,1-.64,0v-2.25H79c.83,0,1.53.34,1.53,1.15S79.81,153.12,79,153.12Z" transform="translate(35 13.97)"/><polygon class="cls-25" points="119.87 164.88 122.16 164.88 122.16 164.25 119.87 164.25 119.87 162.39 122.3 162.38 122.3 161.75 119.11 161.75 119.11 167.63 122.42 167.63 122.42 167 119.87 167 119.87 164.88"/><path class="cls-25" d="M95.34,150.76c-.18.73-.35,1.39-.47,2h0c-.09-.62-.25-1.32-.41-2l-.72-3h-.79l-.79,3a20.71,20.71,0,0,0-.48,2h0c-.1-.58-.26-1.3-.44-2l-.7-3h-.8l1.49,5.89H92l.84-3.07a17,17,0,0,0,.45-1.92h0a16.36,16.36,0,0,0,.39,1.92l.74,3.07h.79l1.67-5.88h-.77Z" transform="translate(35 13.97)"/><path class="cls-25" d="M102.94,151.27c0,1.3-.56,1.88-1.44,1.88s-1.37-.56-1.37-1.88v-3.49h-.77v3.47c0,1.83.91,2.51,2.11,2.51s2.23-.74,2.23-2.54v-3.44h-.77Z" transform="translate(35 13.97)"/><path class="cls-25" d="M108.54,150.33c-.82-.31-1.17-.59-1.17-1.13s.3-.89,1.11-.89a2.36,2.36,0,0,1,1.11.28l.21-.62a2.75,2.75,0,0,0-1.3-.28,1.69,1.69,0,0,0-1.9,1.59c0,.84.59,1.33,1.55,1.67.8.3,1.11.63,1.11,1.17s-.45,1-1.23,1a2.59,2.59,0,0,1-1.36-.38l-.19.64a2.91,2.91,0,0,0,1.5.38c1.39,0,2.06-.79,2.06-1.7S109.53,150.72,108.54,150.33Z" transform="translate(35 13.97)"/><polygon class="cls-25" points="147.16 162.39 148.95 162.39 148.95 167.63 149.72 167.63 149.72 162.39 151.52 162.39 151.52 161.75 147.16 161.75 147.16 162.39"/><polygon class="cls-25" points="154.68 164.88 156.97 164.88 156.97 164.25 154.68 164.25 154.68 162.38 157.1 162.38 157.1 161.75 153.92 161.75 153.92 167.63 157.23 167.64 157.23 167 154.68 167 154.68 164.88"/><path class="cls-25" d="M130.18,147.74a10.84,10.84,0,0,0-1.62.12v5.79a13.31,13.31,0,0,0,1.38.07,3.68,3.68,0,0,0,2.61-.84,3.14,3.14,0,0,0,.85-2.3,2.73,2.73,0,0,0-.84-2.12A3.4,3.4,0,0,0,130.18,147.74Zm-.09,5.37a5.59,5.59,0,0,1-.77,0v-4.65a3.79,3.79,0,0,1,.89-.09,2.11,2.11,0,0,1,2.39,2.28A2.26,2.26,0,0,1,130.09,153.11Z" transform="translate(35 13.97)"/><polygon class="cls-25" points="171.13 167.64 171.9 167.63 171.9 161.75 171.13 161.75 171.13 167.64"/><polygon class="cls-25" points="175.73 164.88 178.02 164.88 178.02 164.25 175.73 164.25 175.73 162.39 178.15 162.38 178.15 161.75 174.97 161.75 174.97 167.64 178.29 167.64 178.29 167 175.73 167 175.73 164.88"/><path class="cls-25" d="M149.72,150.24c0,.92,0,1.64.08,2.43h0a17.28,17.28,0,0,0-1.06-1.92l-1.89-3H146v5.89h.72v-2.51c0-1,0-1.68-.06-2.43h0a20.73,20.73,0,0,0,1.1,2l1.88,3h.77v-5.89h-.73Z" transform="translate(35 13.97)"/><path class="cls-25" d="M155.27,150.33c-.81-.31-1.17-.59-1.17-1.13s.3-.89,1.11-.89a2.41,2.41,0,0,1,1.12.28l.21-.62a2.79,2.79,0,0,0-1.3-.28,1.7,1.7,0,0,0-1.91,1.6c0,.82.59,1.32,1.56,1.66.79.3,1.11.62,1.11,1.17s-.46,1-1.24,1a2.69,2.69,0,0,1-1.36-.39l-.19.65a3,3,0,0,0,1.5.37c1.39,0,2.06-.79,2.06-1.7S156.26,150.72,155.27,150.33Z" transform="translate(35 13.97)"/><polygon class="cls-25" points="193.89 162.39 195.69 162.39 195.69 167.64 196.45 167.64 196.45 162.39 198.25 162.39 198.25 161.75 193.89 161.75 193.89 162.39"/><path class="cls-25" d="M168.43,150.69c-.27.77-.5,1.51-.68,2.19h0c-.16-.68-.38-1.4-.63-2.2l-.92-2.9h-.82l1.93,5.88h.83l2.11-5.88h-.82Z" transform="translate(35 13.97)"/><polygon class="cls-25" points="208.38 164.88 210.68 164.88 210.68 164.25 208.38 164.25 208.38 162.38 210.81 162.39 210.81 161.75 207.63 161.75 207.63 167.63 210.94 167.64 210.94 167 208.38 167 208.38 164.88"/><path class="cls-25" d="M181.19,150.86v0a1.54,1.54,0,0,0,1.1-1.5,1.51,1.51,0,0,0-.45-1.13,2.45,2.45,0,0,0-1.71-.48,7.68,7.68,0,0,0-1.46.13v5.81h.76v-2.56h.72c.69,0,1,.34,1.18,1.15a7,7,0,0,0,.39,1.41h.79a8.13,8.13,0,0,1-.45-1.61A1.53,1.53,0,0,0,181.19,150.86Zm-1-.32h-.78v-2.14a2.89,2.89,0,0,1,.75-.07c.8,0,1.36.34,1.36,1.1S181,150.53,180.21,150.54Z" transform="translate(35 13.97)"/><polygon class="cls-25" points="220.88 161.75 220.12 161.75 220.12 167.64 223.4 167.64 223.4 167 220.88 167 220.88 161.75"/><polygon class="cls-25" points="226.76 164.88 229.05 164.88 229.05 164.25 226.76 164.25 226.76 162.39 229.18 162.39 229.18 161.75 226 161.75 226 167.63 229.31 167.64 229.31 167 226.76 167 226.76 164.88"/><path class="cls-25" d="M200.74,150.24c0,.92,0,1.63.09,2.43h0a14.54,14.54,0,0,0-1.06-1.92l-1.89-3H197v5.88h.72v-2.52c0-1,0-1.68-.06-2.43h0a16.78,16.78,0,0,0,1.1,1.95l1.87,3h.77v-5.89h-.72v2.46Z" transform="translate(35 13.97)"/><polygon class="cls-25" points="240.29 164.88 242.59 164.88 242.59 164.25 240.29 164.25 240.29 162.38 242.72 162.38 242.72 161.75 239.54 161.75 239.54 167.63 242.85 167.63 242.85 167 240.29 167 240.29 164.88"/><path class="cls-25" d="M213.09,150.86v0a1.53,1.53,0,0,0,1.11-1.5,1.48,1.48,0,0,0-.46-1.13,2.38,2.38,0,0,0-1.71-.47,7,7,0,0,0-1.45.12v5.81h.75v-2.56h.73c.68,0,1,.35,1.18,1.15a6.79,6.79,0,0,0,.39,1.4h.79a9.12,9.12,0,0,1-.46-1.62A1.49,1.49,0,0,0,213.09,150.86Zm-1-.32h-.78v-2.14a3,3,0,0,1,.76-.07c.8,0,1.36.34,1.36,1.11S212.92,150.53,212.11,150.54Z" transform="translate(35 13.97)"/></g></g></svg>