<svg xmlns="http://www.w3.org/2000/svg" xmlns:xlink="http://www.w3.org/1999/xlink" viewBox="0 0 563.76 718"><defs><style>.cls-1,.cls-26{fill:#6caf34;}.cls-1{opacity:0.1;}.cls-1,.cls-10,.cls-11,.cls-12,.cls-13,.cls-14,.cls-17,.cls-18,.cls-19,.cls-23,.cls-24,.cls-25,.cls-5,.cls-6,.cls-7,.cls-9{isolation:isolate;}.cls-19,.cls-2,.cls-28{fill:#fff;}.cls-2,.cls-27,.cls-28{stroke:#6caf34;}.cls-2{stroke-linecap:round;stroke-linejoin:round;}.cls-3{fill:url(#linear-gradient);}.cls-27,.cls-4{fill:none;}.cls-6{font-size:22px;}.cls-10,.cls-11,.cls-12,.cls-13,.cls-14,.cls-17,.cls-18,.cls-23,.cls-24,.cls-25,.cls-6,.cls-7,.cls-9{font-family:ArialMT, Arial;}.cls-10,.cls-11,.cls-12,.cls-13,.cls-14,.cls-17,.cls-18,.cls-23,.cls-24,.cls-25,.cls-7,.cls-9{font-size:14px;}.cls-8{letter-spacing:-0.06em;}.cls-9{letter-spacing:13.57em;}.cls-10{letter-spacing:15.64em;}.cls-11{letter-spacing:0.07em;}.cls-12{letter-spacing:15.71em;}.cls-13{letter-spacing:14.07em;}.cls-14{letter-spacing:15.36em;}.cls-15{letter-spacing:-0.11em;}.cls-16{letter-spacing:-0.04em;}.cls-17{letter-spacing:1.86em;}.cls-18{letter-spacing:2.29em;}.cls-19{font-size:18px;font-family:MyriadPro-Bold, Myriad Pro;font-weight:700;}.cls-20{letter-spacing:-0.04em;}.cls-21{letter-spacing:0.01em;}.cls-22{letter-spacing:-0.01em;}.cls-23{letter-spacing:11.71em;}.cls-24{letter-spacing:1.14em;}.cls-25{letter-spacing:6.07em;}.cls-27,.cls-28{stroke-miterlimit:10;}</style><linearGradient id="linear-gradient" x1="26" y1="47.9" x2="129.39" y2="47.9" gradientTransform="matrix(1, 0, 0, -1, 0, 676.83)" gradientUnits="userSpaceOnUse"><stop offset="0" stop-color="#209ecc"/><stop offset="1" stop-color="#52ae32"/></linearGradient></defs><g id="Layer_2" data-name="Layer 2"><g id="Laag_1" data-name="Laag 1"><rect class="cls-1" width="554" height="677.5"/><rect class="cls-2" x="26" y="468" width="501" height="84"/><path class="cls-3" d="M129.39,637.75c0,4.52-3.23,8.19-7.21,8.19h-89c-4,0-7.21-3.67-7.21-8.19V620.11c0-4.52,3.23-8.19,7.21-8.19h89c4,0,7.21,3.66,7.21,8.19Z"/><rect class="cls-2" x="26" y="129" width="234" height="37"/><rect class="cls-2" x="26" y="266" width="234" height="37"/><rect class="cls-2" x="293" y="266" width="234" height="37"/><rect class="cls-2" x="26" y="335" width="234" height="37"/><rect class="cls-2" x="293" y="335" width="234" height="37"/><rect class="cls-2" x="26" y="401" width="234" height="37"/><rect class="cls-2" x="293" y="401" width="234" height="37"/><rect class="cls-2" x="293" y="129" width="234" height="37"/><rect class="cls-2" x="26" y="198" width="234" height="37"/><rect class="cls-2" x="293" y="198" width="234" height="37"/><rect class="cls-2" x="26" y="568" width="13" height="13"/><rect class="cls-4" x="24" y="28" width="508" height="690"/><g class="cls-5"><text class="cls-6" transform="translate(24 44.29)">ZAKELIJK</text><text class="cls-7" transform="translate(24 85.29)"><tspan xml:space="preserve">Aanhef *       heer      Mevrouw</tspan></text><text class="cls-7" transform="translate(24 119.29)"><tspan class="cls-8">V</tspan><tspan x="8.57" y="0">oornaam *</tspan></text><text class="cls-9" transform="translate(97.87 119.29)"> </text><text class="cls-7" transform="translate(292 119.29)">Achternaam *</text><text class="cls-7" transform="translate(24 187.29)">Functie</text><text class="cls-10" transform="translate(68.6 187.29)"> </text><text class="cls-7" transform="translate(292 187.29)">Bedrijf *</text><text class="cls-7" transform="translate(24 255.29)">Sector</text><text class="cls-11" transform="translate(63.04 255.29)"> </text><text class="cls-12" transform="translate(68 255.29)"> </text><text class="cls-7" transform="translate(292 255.29)">Adres *</text><text class="cls-7" transform="translate(24 323.29)">Postcode *</text><text class="cls-13" transform="translate(90.64 323.29)"> </text><text class="cls-7" transform="translate(292 323.29)">Plaats *</text><text class="cls-7" transform="translate(24 391.29)">E-mail *</text><text class="cls-14" transform="translate(72.32 391.29)"> </text><text class="cls-7" transform="translate(292 391.29)"><tspan class="cls-15">T</tspan><tspan x="7" y="0">elefoon *</tspan></text><text class="cls-7" transform="translate(24 459.29)"><tspan class="cls-16">W</tspan><tspan x="12.69" y="0">aar kunnen we u mee helpen?</tspan></text><text class="cls-17" transform="translate(24 544.29)"> </text><text class="cls-17" transform="translate(24 561.29)"> </text><text class="cls-17" transform="translate(24 578.29)"> </text><text class="cls-7" transform="translate(54 578.29)">Ja, ik ben graag scherp op het laatste nieuws en meld me aan voor de </text><text class="cls-7" transform="translate(487.63 578.29)"> </text><text class="cls-18" transform="translate(492 578.29)"><tspan xml:space="preserve">  </tspan></text><text class="cls-17" transform="translate(24 595.29)"> </text><text class="cls-7" transform="translate(54 595.29)">nieuwsbrief van Schoonmaak Loont</text><text class="cls-7" transform="translate(24 633.89)"><tspan xml:space="preserve">    </tspan></text><text class="cls-19" transform="translate(39.34 633.89)"><tspan class="cls-20">V</tspan><tspan x="10.69" y="0">e</tspan><tspan class="cls-21" x="20.2" y="0">r</tspan><tspan class="cls-22" x="27.16" y="0">z</tspan><tspan x="35.48" y="0">enden</tspan></text><text class="cls-23" transform="translate(123.4 633.89)"> </text><text class="cls-24" transform="translate(292 633.89)"> </text><text class="cls-18" transform="translate(312 633.89)"> </text><text class="cls-25" transform="translate(348 633.89)"> </text><text class="cls-7" transform="translate(437.8 633.89)">* <tspan class="cls-8" x="9.34" y="0">V</tspan><tspan x="17.9" y="0">erplicht veld</tspan></text></g><circle class="cls-26" cx="91.73" cy="81.17" r="4.92"/><circle class="cls-27" cx="91.73" cy="81.17" r="6.58"/><circle class="cls-28" cx="144.4" cy="81.17" r="6.58"/></g></g></svg>