<svg id="Layer_1" data-name="Layer 1" xmlns="http://www.w3.org/2000/svg" xmlns:xlink="http://www.w3.org/1999/xlink" viewBox="0 0 264.12 135.23"><defs><style>.cls-1{fill:none;}.cls-2{clip-path:url(#clip-path);}.cls-3{clip-path:url(#clip-path-2);}.cls-4{fill:#209ecc;}.cls-5{fill:#209ecb;}.cls-6{fill:#219eca;}.cls-7{fill:#219ec9;}.cls-8{fill:#219ec8;}.cls-9{fill:#229fc7;}.cls-10{fill:#229fc6;}.cls-11{fill:#229fc5;}.cls-12{fill:#239fc4;}.cls-13{fill:#239fc3;}.cls-14{fill:#239fc2;}.cls-15{fill:#249fc1;}.cls-16{fill:#249fc0;}.cls-17{fill:#249fbf;}.cls-18{fill:#259fbe;}.cls-19{fill:#25a0bd;}.cls-20{fill:#25a0bc;}.cls-21{fill:#26a0bb;}.cls-22{fill:#26a0ba;}.cls-23{fill:#26a0b9;}.cls-24{fill:#27a0b8;}.cls-25{fill:#27a0b7;}.cls-26{fill:#27a0b6;}.cls-27{fill:#28a0b5;}.cls-28{fill:#28a1b4;}.cls-29{fill:#28a1b3;}.cls-30{fill:#28a1b2;}.cls-31{fill:#29a1b1;}.cls-32{fill:#29a1b0;}.cls-33{fill:#29a1af;}.cls-34{fill:#2aa1ae;}.cls-35{fill:#2aa1ad;}.cls-36{fill:#2aa1ac;}.cls-37{fill:#2ba1ab;}.cls-38{fill:#2ba2aa;}.cls-39{fill:#2ba2a9;}.cls-40{fill:#2ca2a8;}.cls-41{fill:#2ca2a7;}.cls-42{fill:#2ca2a6;}.cls-43{fill:#2da2a5;}.cls-44{fill:#2da2a4;}.cls-45{fill:#2da2a3;}.cls-46{fill:#2ea2a2;}.cls-47{fill:#2ea2a1;}.cls-48{fill:#2ea3a0;}.cls-49{fill:#2fa39f;}.cls-50{fill:#2fa39e;}.cls-51{fill:#2fa39d;}.cls-52{fill:#30a39c;}.cls-53{fill:#30a39b;}.cls-54{fill:#30a39a;}.cls-55{fill:#31a399;}.cls-56{fill:#31a398;}.cls-57{fill:#31a497;}.cls-58{fill:#32a496;}.cls-59{fill:#32a495;}.cls-60{fill:#32a494;}.cls-61{fill:#33a493;}.cls-62{fill:#33a492;}.cls-63{fill:#33a491;}.cls-64{fill:#34a490;}.cls-65{fill:#34a48f;}.cls-66{fill:#34a48e;}.cls-67{fill:#35a58d;}.cls-68{fill:#35a58c;}.cls-69{fill:#35a58b;}.cls-70{fill:#36a58a;}.cls-71{fill:#36a589;}.cls-72{fill:#36a588;}.cls-73{fill:#37a587;}.cls-74{fill:#37a586;}.cls-75{fill:#37a585;}.cls-76{fill:#38a684;}.cls-77{fill:#38a683;}.cls-78{fill:#38a682;}.cls-79{fill:#39a681;}.cls-80{fill:#39a680;}.cls-81{fill:#39a67e;}.cls-82{fill:#39a67d;}.cls-83{fill:#3aa67c;}.cls-84{fill:#3aa67b;}.cls-85{fill:#3aa67a;}.cls-86{fill:#3ba779;}.cls-87{fill:#3ba778;}.cls-88{fill:#3ba777;}.cls-89{fill:#3ca776;}.cls-90{fill:#3ca775;}.cls-91{fill:#3ca774;}.cls-92{fill:#3da773;}.cls-93{fill:#3da772;}.cls-94{fill:#3da771;}.cls-95{fill:#3ea870;}.cls-96{fill:#3ea86f;}.cls-97{fill:#3ea86e;}.cls-98{fill:#3fa86d;}.cls-99{fill:#3fa86c;}.cls-100{fill:#3fa86b;}.cls-101{fill:#40a86a;}.cls-102{fill:#40a869;}.cls-103{fill:#40a868;}.cls-104{fill:#41a867;}.cls-105{fill:#41a966;}.cls-106{fill:#41a965;}.cls-107{fill:#42a964;}.cls-108{fill:#42a963;}.cls-109{fill:#42a962;}.cls-110{fill:#43a961;}.cls-111{fill:#43a960;}.cls-112{fill:#43a95f;}.cls-113{fill:#44a95e;}.cls-114{fill:#44aa5d;}.cls-115{fill:#44aa5c;}.cls-116{fill:#45aa5b;}.cls-117{fill:#45aa5a;}.cls-118{fill:#45aa59;}.cls-119{fill:#46aa58;}.cls-120{fill:#46aa57;}.cls-121{fill:#46aa56;}.cls-122{fill:#47aa55;}.cls-123{fill:#47aa54;}.cls-124{fill:#47ab53;}.cls-125{fill:#48ab52;}.cls-126{fill:#48ab51;}.cls-127{fill:#48ab50;}.cls-128{fill:#49ab4f;}.cls-129{fill:#49ab4e;}.cls-130{fill:#49ab4d;}.cls-131{fill:#4aab4c;}.cls-132{fill:#4aab4b;}.cls-133{fill:#4aab4a;}.cls-134{fill:#4aac49;}.cls-135{fill:#4bac48;}.cls-136{fill:#4bac47;}.cls-137{fill:#4bac46;}.cls-138{fill:#4cac45;}.cls-139{fill:#4cac44;}.cls-140{fill:#4cac43;}.cls-141{fill:#4dac42;}.cls-142{fill:#4dac41;}.cls-143{fill:#4dad40;}.cls-144{fill:#4ead3f;}.cls-145{fill:#4ead3e;}.cls-146{fill:#4ead3d;}.cls-147{fill:#4fad3c;}.cls-148{fill:#4fad3b;}.cls-149{fill:#4fad3a;}.cls-150{fill:#50ad39;}.cls-151{fill:#50ad38;}.cls-152{fill:#50ad37;}.cls-153{fill:#51ae36;}.cls-154{fill:#51ae35;}.cls-155{fill:#51ae34;}.cls-156{fill:#52ae33;}.cls-157{fill:#52ae32;}.cls-158{fill:#fff;}</style><clipPath id="clip-path" transform="translate(36.07 19.22)"><path class="cls-1" d="M37.69,29.92H61.53c4.6,0,8.32,3.16,8.32,7.06V57.21c0,3.9-3.72,7.06-8.32,7.06H37.69c-4.59,0-8.31-3.16-8.31-7.06V37C29.38,33.08,33.1,29.92,37.69,29.92Z"/></clipPath><clipPath id="clip-path-2" transform="translate(36.07 19.22)"><rect class="cls-1" x="-36.07" y="-19.22" width="264.12" height="135.22"/></clipPath></defs><g id="Layer_2" data-name="Layer 2"><g id="Laag_1" data-name="Laag 1"><g class="cls-2"><g class="cls-3"><polygon class="cls-4" points="0 127.82 5.3 135.23 0 135.23 0 127.82"/><polygon class="cls-4" points="0 125.85 6.71 135.23 5.3 135.23 0 127.82 0 125.85"/><polygon class="cls-5" points="0 123.87 8.12 135.23 6.71 135.23 0 125.85 0 123.87"/><polygon class="cls-6" points="0 121.9 9.53 135.23 8.12 135.23 0 123.87 0 121.9"/><polygon class="cls-7" points="0 119.94 10.94 135.23 9.53 135.23 0 121.9 0 119.94"/><polygon class="cls-8" points="0 117.96 12.35 135.23 10.94 135.23 0 119.94 0 117.96"/><polygon class="cls-9" points="0 115.97 13.78 135.23 12.35 135.23 0 117.96 0 115.97"/><polygon class="cls-10" points="0 114.01 15.19 135.23 13.78 135.23 0 115.97 0 114.01"/><polygon class="cls-11" points="0 112.04 16.6 135.23 15.19 135.23 0 114.01 0 112.04"/><polygon class="cls-12" points="0 110.06 18.01 135.23 16.6 135.23 0 112.04 0 110.06"/><polygon class="cls-13" points="0 108.09 19.42 135.23 18.01 135.23 0 110.06 0 108.09"/><polygon class="cls-14" points="0 106.11 20.83 135.23 19.42 135.23 0 108.09 0 106.11"/><polygon class="cls-15" points="0 104.14 22.24 135.23 20.83 135.23 0 106.11 0 104.14"/><polygon class="cls-16" points="0 102.16 23.66 135.23 22.24 135.23 0 104.14 0 102.16"/><polygon class="cls-17" points="0 100.2 25.07 135.23 23.66 135.23 0 102.16 0 100.2"/><polygon class="cls-18" points="0 98.22 26.48 135.23 25.07 135.23 0 100.2 0 98.22"/><polygon class="cls-19" points="0 96.25 27.89 135.23 26.48 135.23 0 98.22 0 96.25"/><polygon class="cls-20" points="0 94.27 29.3 135.23 27.89 135.23 0 96.25 0 94.27"/><polygon class="cls-21" points="0 92.3 30.71 135.23 29.3 135.23 0 94.27 0 92.3"/><polygon class="cls-22" points="0 90.32 32.12 135.23 30.71 135.23 0 92.3 0 90.32"/><polygon class="cls-23" points="0 88.35 33.53 135.23 32.12 135.23 0 90.32 0 88.35"/><polygon class="cls-24" points="0 86.37 34.96 135.23 33.53 135.23 0 88.35 0 86.37"/><polygon class="cls-25" points="0 84.41 36.37 135.23 34.96 135.23 0 86.37 0 84.41"/><polygon class="cls-26" points="0 82.42 37.78 135.23 36.37 135.23 0 84.41 0 82.42"/><polygon class="cls-27" points="0 80.46 39.19 135.23 37.78 135.23 0 82.42 0 80.46"/><polygon class="cls-28" points="0 78.48 40.6 135.23 39.19 135.23 0 80.46 0 78.48"/><polygon class="cls-29" points="0 76.51 42.01 135.23 40.6 135.23 0 78.48 0 76.51"/><polygon class="cls-30" points="0 74.54 43.42 135.23 42.01 135.23 0 76.51 0 74.54"/><polygon class="cls-31" points="0 72.56 44.83 135.23 43.42 135.23 0 74.54 0 72.56"/><polygon class="cls-32" points="0 70.58 46.26 135.23 44.83 135.23 0 72.56 0 70.58"/><polygon class="cls-33" points="0 68.61 47.67 135.23 46.26 135.23 0 70.58 0 68.61"/><polygon class="cls-34" points="0 66.65 49.08 135.23 47.67 135.23 0 68.61 0 66.65"/><polygon class="cls-35" points="0 64.67 50.49 135.23 49.08 135.23 0 66.65 0 64.67"/><polygon class="cls-36" points="0 62.7 51.9 135.23 50.49 135.23 0 64.67 0 62.7"/><polygon class="cls-37" points="0 60.72 53.31 135.23 51.9 135.23 0 62.7 0 60.72"/><polygon class="cls-38" points="0 58.75 54.72 135.23 53.31 135.23 0 60.72 0 58.75"/><polygon class="cls-39" points="0 56.77 56.14 135.23 54.72 135.23 0 58.75 0 56.77"/><polygon class="cls-40" points="0 54.8 57.55 135.23 56.14 135.23 0 56.77 0 54.8"/><polygon class="cls-41" points="0 52.82 58.96 135.23 57.55 135.23 0 54.8 0 52.82"/><polygon class="cls-42" points="0 50.85 60.37 135.23 58.96 135.23 0 52.82 0 50.85"/><polygon class="cls-43" points="0 48.87 61.78 135.23 60.37 135.23 0 50.85 0 48.87"/><polygon class="cls-44" points="0 46.91 63.2 135.23 61.78 135.23 0 48.87 0 46.91"/><polygon class="cls-45" points="0 44.93 64.61 135.23 63.2 135.23 0 46.91 0 44.93"/><polygon class="cls-46" points="0 42.96 66.02 135.23 64.61 135.23 0 44.93 0 42.96"/><polygon class="cls-47" points="0 40.98 67.44 135.23 66.02 135.23 0 42.96 0 40.98"/><polygon class="cls-48" points="0 39.01 68.85 135.23 67.44 135.23 0 40.98 0 39.01"/><polygon class="cls-49" points="0 37.03 70.26 135.23 68.85 135.23 0 39.01 0 37.03"/><polygon class="cls-50" points="0 35.06 71.67 135.23 70.26 135.23 0 37.03 0 35.06"/><polygon class="cls-51" points="0 33.08 73.08 135.23 71.67 135.23 0 35.06 0 33.08"/><polygon class="cls-52" points="0 31.12 74.49 135.23 73.08 135.23 0 33.08 0 31.12"/><polygon class="cls-53" points="0 29.14 75.9 135.23 74.49 135.23 0 31.12 0 29.14"/><polygon class="cls-54" points="0 27.17 77.33 135.23 75.9 135.23 0 29.14 0 27.17"/><polygon class="cls-55" points="0 25.2 78.74 135.23 77.33 135.23 0 27.17 0 25.2"/><polygon class="cls-56" points="0 23.22 80.15 135.23 78.74 135.23 0 25.2 0 23.22"/><polygon class="cls-57" points="0 21.25 81.56 135.23 80.15 135.23 0 23.22 0 21.25"/><polygon class="cls-58" points="0 19.27 82.97 135.23 81.56 135.23 0 21.25 0 19.27"/><polygon class="cls-59" points="0 17.3 84.38 135.23 82.97 135.23 0 19.27 0 17.3"/><polygon class="cls-60" points="0 15.32 85.79 135.23 84.38 135.23 0 17.3 0 15.32"/><polygon class="cls-61" points="0 13.36 87.2 135.23 85.79 135.23 0 15.32 0 13.36"/><polygon class="cls-62" points="0 11.38 88.63 135.23 87.2 135.23 0 13.36 0 11.38"/><polygon class="cls-63" points="0 9.41 90.03 135.23 88.63 135.23 0 11.38 0 9.41"/><polygon class="cls-64" points="0 7.43 91.44 135.23 90.03 135.23 0 9.41 0 7.43"/><polygon class="cls-65" points="0 5.46 92.86 135.23 91.44 135.23 0 7.43 0 5.46"/><polygon class="cls-66" points="0 3.48 94.27 135.23 92.86 135.23 0 5.46 0 3.48"/><polygon class="cls-67" points="0 1.51 95.67 135.23 94.27 135.23 0 3.48 0 1.51"/><polygon class="cls-68" points="0.32 0 97.08 135.23 95.67 135.23 0 1.51 0 0 0.32 0"/><polygon class="cls-69" points="1.75 0 98.51 135.23 97.08 135.23 0.32 0 1.75 0"/><polygon class="cls-70" points="3.16 0 99.92 135.23 98.51 135.23 1.75 0 3.16 0"/><polygon class="cls-71" points="4.57 0 101.33 135.23 99.92 135.23 3.16 0 4.57 0"/><polygon class="cls-72" points="5.98 0 102.74 135.23 101.33 135.23 4.57 0 5.98 0"/><polygon class="cls-73" points="7.39 0 104.15 135.23 102.74 135.23 5.98 0 7.39 0"/><polygon class="cls-74" points="8.8 0 105.56 135.23 104.15 135.23 7.39 0 8.8 0"/><polygon class="cls-75" points="10.21 0 106.97 135.23 105.56 135.23 8.8 0 10.21 0"/><polygon class="cls-76" points="11.64 0 108.4 135.23 106.97 135.23 10.21 0 11.64 0"/><polygon class="cls-77" points="13.05 0 109.81 135.23 108.4 135.23 11.64 0 13.05 0"/><polygon class="cls-78" points="14.46 0 111.22 135.23 109.81 135.23 13.05 0 14.46 0"/><polygon class="cls-79" points="15.87 0 112.63 135.23 111.22 135.23 14.46 0 15.87 0"/><polygon class="cls-80" points="17.28 0 114.04 135.23 112.63 135.23 15.87 0 17.28 0"/><polygon class="cls-81" points="18.69 0 115.45 135.23 114.04 135.23 17.28 0 18.69 0"/><polygon class="cls-82" points="20.1 0 116.86 135.23 115.45 135.23 18.69 0 20.1 0"/><polygon class="cls-83" points="21.52 0 118.27 135.23 116.86 135.23 20.1 0 21.52 0"/><polygon class="cls-84" points="22.93 0 119.69 135.23 118.27 135.23 21.52 0 22.93 0"/><polygon class="cls-85" points="24.34 0 121.11 135.23 119.69 135.23 22.93 0 24.34 0"/><polygon class="cls-86" points="25.75 0 122.52 135.23 121.11 135.23 24.34 0 25.75 0"/><polygon class="cls-87" points="27.16 0 123.93 135.23 122.52 135.23 25.75 0 27.16 0"/><polygon class="cls-88" points="28.57 0 125.34 135.23 123.93 135.23 27.16 0 28.57 0"/><polygon class="cls-89" points="29.98 0 126.75 135.23 125.34 135.23 28.57 0 29.98 0"/><polygon class="cls-90" points="31.39 0 128.16 135.23 126.75 135.23 29.98 0 31.39 0"/><polygon class="cls-91" points="32.82 0 129.57 135.23 128.16 135.23 31.39 0 32.82 0"/><polygon class="cls-92" points="34.23 0 130.99 135.23 129.57 135.23 32.82 0 34.23 0"/><polygon class="cls-93" points="35.64 0 132.4 135.23 130.99 135.23 34.23 0 35.64 0"/><polygon class="cls-94" points="37.05 0 133.81 135.23 132.4 135.23 35.64 0 37.05 0"/><polygon class="cls-95" points="38.46 0 135.22 135.23 133.81 135.23 37.05 0 38.46 0"/><polygon class="cls-96" points="39.87 0 136.63 135.23 135.22 135.23 38.46 0 39.87 0"/><polygon class="cls-97" points="41.28 0 138.04 135.23 136.63 135.23 39.87 0 41.28 0"/><polygon class="cls-98" points="42.69 0 139.45 135.23 138.04 135.23 41.28 0 42.69 0"/><polygon class="cls-99" points="44.12 0 140.88 135.23 139.45 135.23 42.69 0 44.12 0"/><polygon class="cls-100" points="45.53 0 142.29 135.23 140.88 135.23 44.12 0 45.53 0"/><polygon class="cls-101" points="46.94 0 143.7 135.23 142.29 135.23 45.53 0 46.94 0"/><polygon class="cls-102" points="48.35 0 145.11 135.23 143.7 135.23 46.94 0 48.35 0"/><polygon class="cls-103" points="49.76 0 146.52 135.23 145.11 135.23 48.35 0 49.76 0"/><polygon class="cls-104" points="51.17 0 147.93 135.23 146.52 135.23 49.76 0 51.17 0"/><polygon class="cls-105" points="52.58 0 149.34 135.23 147.93 135.23 51.17 0 52.58 0"/><polygon class="cls-106" points="53.99 0 150.77 135.23 149.34 135.23 52.58 0 53.99 0"/><polygon class="cls-107" points="55.41 0 152.18 135.23 150.77 135.23 53.99 0 55.41 0"/><polygon class="cls-108" points="56.83 0 153.59 135.23 152.18 135.23 55.41 0 56.83 0"/><polygon class="cls-109" points="58.23 0 155 135.23 153.59 135.23 56.83 0 58.23 0"/><polygon class="cls-110" points="59.65 0 156.41 135.23 155 135.23 58.23 0 59.65 0"/><polygon class="cls-111" points="61.05 0 157.82 135.23 156.41 135.23 59.65 0 61.05 0"/><polygon class="cls-112" points="62.47 0 159.23 135.23 157.82 135.23 61.05 0 62.47 0"/><polygon class="cls-113" points="63.88 0 160.64 135.23 159.23 135.23 62.47 0 63.88 0"/><polygon class="cls-114" points="65.3 0 162.05 135.23 160.64 135.23 63.88 0 65.3 0"/><polygon class="cls-115" points="66.71 0 163.47 135.23 162.05 135.23 65.3 0 66.71 0"/><polygon class="cls-116" points="68.12 0 164.88 135.23 163.47 135.23 66.71 0 68.12 0"/><polygon class="cls-117" points="69.53 0 166.29 135.23 164.88 135.23 68.12 0 69.53 0"/><polygon class="cls-118" points="70.94 0 167.7 135.23 166.29 135.23 69.53 0 70.94 0"/><polygon class="cls-119" points="72.35 0 169.11 135.23 167.7 135.23 70.94 0 72.35 0"/><polygon class="cls-120" points="73.76 0 170.52 135.23 169.11 135.23 72.35 0 73.76 0"/><polygon class="cls-121" points="75.17 0 171.93 135.23 170.52 135.23 73.76 0 75.17 0"/><polygon class="cls-122" points="76.6 0 173.36 135.23 171.93 135.23 75.17 0 76.6 0"/><polygon class="cls-123" points="78.01 0 174.77 135.23 173.36 135.23 76.6 0 78.01 0"/><polygon class="cls-124" points="79.42 0 176.18 135.23 174.77 135.23 78.01 0 79.42 0"/><polygon class="cls-125" points="80.83 0 177.59 135.23 176.18 135.23 79.42 0 80.83 0"/><polygon class="cls-126" points="82.24 0 179 135.23 177.59 135.23 80.83 0 82.24 0"/><polygon class="cls-127" points="83.65 0 180.41 135.23 179 135.23 82.24 0 83.65 0"/><polygon class="cls-128" points="85.06 0 181.82 135.23 180.41 135.23 83.65 0 85.06 0"/><polygon class="cls-129" points="86.48 0 183.25 135.23 181.82 135.23 85.06 0 86.48 0"/><polygon class="cls-130" points="87.89 0 184.66 135.23 183.25 135.23 86.48 0 87.89 0"/><polygon class="cls-131" points="89.31 0 186.07 135.23 184.66 135.23 87.89 0 89.31 0"/><polygon class="cls-132" points="90.72 0 187.48 135.23 186.07 135.23 89.31 0 90.72 0"/><polygon class="cls-133" points="92.13 0 188.89 135.23 187.48 135.23 90.72 0 92.13 0"/><polygon class="cls-134" points="93.54 0 190.3 135.23 188.89 135.23 92.13 0 93.54 0"/><polygon class="cls-135" points="94.95 0 191.71 135.23 190.3 135.23 93.54 0 94.95 0"/><polygon class="cls-136" points="96.36 0 193.13 135.23 191.71 135.23 94.95 0 96.36 0"/><polygon class="cls-137" points="97.78 0 194.54 135.23 193.13 135.23 96.36 0 97.78 0"/><polygon class="cls-138" points="99.19 0 195.95 135.23 194.54 135.23 97.78 0 99.19 0"/><polygon class="cls-139" points="100.6 0 197.36 135.23 195.95 135.23 99.19 0 100.6 0"/><polygon class="cls-140" points="102.01 0 198.77 135.23 197.36 135.23 100.6 0 102.01 0"/><polygon class="cls-141" points="103.42 0 200.18 135.23 198.77 135.23 102.01 0 103.42 0"/><polygon class="cls-142" points="104.83 0 201.59 135.23 200.18 135.23 103.42 0 104.83 0"/><polygon class="cls-143" points="106.26 0 203 135.23 201.59 135.23 104.83 0 106.26 0"/><polygon class="cls-144" points="107.67 0 204.43 135.23 203 135.23 106.26 0 107.67 0"/><polygon class="cls-145" points="109.08 0 205.84 135.23 204.43 135.23 107.67 0 109.08 0"/><polygon class="cls-146" points="110.49 0 207.25 135.23 205.84 135.23 109.08 0 110.49 0"/><polygon class="cls-147" points="111.9 0 208.66 135.23 207.25 135.23 110.49 0 111.9 0"/><polygon class="cls-148" points="113.31 0 210.07 135.23 208.66 135.23 111.9 0 113.31 0"/><polygon class="cls-149" points="114.72 0 211.48 135.23 210.07 135.23 113.31 0 114.72 0"/><polygon class="cls-150" points="116.13 0 212.89 135.23 211.48 135.23 114.72 0 116.13 0"/><polygon class="cls-151" points="117.56 0 214.3 135.23 212.89 135.23 116.13 0 117.56 0"/><polygon class="cls-152" points="118.97 0 215.73 135.23 214.3 135.23 117.56 0 118.97 0"/><polygon class="cls-153" points="120.38 0 217.14 135.23 215.73 135.23 118.97 0 120.38 0"/><polygon class="cls-154" points="121.79 0 218.55 135.23 217.14 135.23 120.38 0 121.79 0"/><polygon class="cls-155" points="123.2 0 219.96 135.23 218.55 135.23 121.79 0 123.2 0"/><polygon class="cls-156" points="124.61 0 221.37 135.23 219.96 135.23 123.2 0 124.61 0"/><polygon class="cls-157" points="126.02 0 222.78 135.23 221.37 135.23 124.61 0 126.02 0"/><polygon class="cls-157" points="222.78 135.23 126.02 0 264.12 0 264.12 135.23 222.78 135.23"/></g></g><path class="cls-158" d="M60.48,39.36h3.74v-5H58.63a8.16,8.16,0,0,0-5.77,2.42S51.34,38,51.24,41.6h0v3.73H45.78v5.22h5.54V64.31h6.37V50.55h5.5L64,45.26H57.69V41.58h0a2.36,2.36,0,0,1,2.49-2.23Z" transform="translate(36.07 19.22)"/></g></g></svg>