<svg xmlns="http://www.w3.org/2000/svg" xmlns:xlink="http://www.w3.org/1999/xlink" viewBox="0 0 162.96 98.3"><defs><style>.cls-1{fill:none;}.cls-2{clip-path:url(#clip-path);}.cls-3{clip-path:url(#clip-path-2);}.cls-4{fill:#209ecc;}.cls-5{fill:#209ecb;}.cls-6{fill:#219eca;}.cls-7{fill:#219ec9;}.cls-8{fill:#219ec8;}.cls-9{fill:#229fc7;}.cls-10{fill:#229fc6;}.cls-11{fill:#229fc5;}.cls-12{fill:#239fc4;}.cls-13{fill:#239fc3;}.cls-14{fill:#239fc2;}.cls-15{fill:#249fc1;}.cls-16{fill:#249fc0;}.cls-17{fill:#249fbf;}.cls-18{fill:#259fbe;}.cls-19{fill:#25a0bd;}.cls-20{fill:#25a0bc;}.cls-21{fill:#26a0bb;}.cls-22{fill:#26a0ba;}.cls-23{fill:#26a0b9;}.cls-24{fill:#27a0b8;}.cls-25{fill:#27a0b7;}.cls-26{fill:#27a0b6;}.cls-27{fill:#28a0b5;}.cls-28{fill:#28a1b4;}.cls-29{fill:#28a1b3;}.cls-30{fill:#28a1b2;}.cls-31{fill:#29a1b1;}.cls-32{fill:#29a1b0;}.cls-33{fill:#29a1af;}.cls-34{fill:#2aa1ae;}.cls-35{fill:#2aa1ad;}.cls-36{fill:#2aa1ac;}.cls-37{fill:#2ba1ab;}.cls-38{fill:#2ba2aa;}.cls-39{fill:#2ba2a9;}.cls-40{fill:#2ca2a8;}.cls-41{fill:#2ca2a7;}.cls-42{fill:#2ca2a6;}.cls-43{fill:#2da2a5;}.cls-44{fill:#2da2a4;}.cls-45{fill:#2da2a3;}.cls-46{fill:#2ea2a2;}.cls-47{fill:#2ea2a1;}.cls-48{fill:#2ea3a0;}.cls-49{fill:#2fa39f;}.cls-50{fill:#2fa39e;}.cls-51{fill:#2fa39d;}.cls-52{fill:#30a39c;}.cls-53{fill:#30a39b;}.cls-54{fill:#30a39a;}.cls-55{fill:#31a399;}.cls-56{fill:#31a398;}.cls-57{fill:#31a497;}.cls-58{fill:#32a496;}.cls-59{fill:#32a495;}.cls-60{fill:#32a494;}.cls-61{fill:#33a493;}.cls-62{fill:#33a492;}.cls-63{fill:#33a491;}.cls-64{fill:#34a490;}.cls-65{fill:#34a48f;}.cls-66{fill:#34a48e;}.cls-67{fill:#35a58d;}.cls-68{fill:#35a58c;}.cls-69{fill:#35a58b;}.cls-70{fill:#36a58a;}.cls-71{fill:#36a589;}.cls-72{fill:#36a588;}.cls-73{fill:#37a587;}.cls-74{fill:#37a586;}.cls-75{fill:#37a585;}.cls-76{fill:#38a684;}.cls-77{fill:#38a683;}.cls-78{fill:#38a682;}.cls-79{fill:#39a681;}.cls-80{fill:#39a680;}.cls-81{fill:#39a67e;}.cls-82{fill:#39a67d;}.cls-83{fill:#3aa67c;}.cls-84{fill:#3aa67b;}.cls-85{fill:#3aa67a;}.cls-86{fill:#3ba779;}.cls-87{fill:#3ba778;}.cls-88{fill:#3ba777;}.cls-89{fill:#3ca776;}.cls-90{fill:#3ca775;}.cls-91{fill:#3ca774;}.cls-92{fill:#3da773;}.cls-93{fill:#3da772;}.cls-94{fill:#3da771;}.cls-95{fill:#3ea870;}.cls-96{fill:#3ea86f;}.cls-97{fill:#3ea86e;}.cls-98{fill:#3fa86d;}.cls-99{fill:#3fa86c;}.cls-100{fill:#3fa86b;}.cls-101{fill:#40a86a;}.cls-102{fill:#40a869;}.cls-103{fill:#40a868;}.cls-104{fill:#41a867;}.cls-105{fill:#41a966;}.cls-106{fill:#41a965;}.cls-107{fill:#42a964;}.cls-108{fill:#42a963;}.cls-109{fill:#42a962;}.cls-110{fill:#43a961;}.cls-111{fill:#43a960;}.cls-112{fill:#43a95f;}.cls-113{fill:#44a95e;}.cls-114{fill:#44aa5d;}.cls-115{fill:#44aa5c;}.cls-116{fill:#45aa5b;}.cls-117{fill:#45aa5a;}.cls-118{fill:#45aa59;}.cls-119{fill:#46aa58;}.cls-120{fill:#46aa57;}.cls-121{fill:#46aa56;}.cls-122{fill:#47aa55;}.cls-123{fill:#47aa54;}.cls-124{fill:#47ab53;}.cls-125{fill:#48ab52;}.cls-126{fill:#48ab51;}.cls-127{fill:#48ab50;}.cls-128{fill:#49ab4f;}.cls-129{fill:#49ab4e;}.cls-130{fill:#49ab4d;}.cls-131{fill:#4aab4c;}.cls-132{fill:#4aab4b;}.cls-133{fill:#4aab4a;}.cls-134{fill:#4aac49;}.cls-135{fill:#4bac48;}.cls-136{fill:#4bac47;}.cls-137{fill:#4bac46;}.cls-138{fill:#4cac45;}.cls-139{fill:#4cac44;}.cls-140{fill:#4cac43;}.cls-141{fill:#4dac42;}.cls-142{fill:#4dac41;}.cls-143{fill:#4dad40;}.cls-144{fill:#4ead3f;}.cls-145{fill:#4ead3e;}.cls-146{fill:#4ead3d;}.cls-147{fill:#4fad3c;}.cls-148{fill:#4fad3b;}.cls-149{fill:#4fad3a;}.cls-150{fill:#50ad39;}.cls-151{fill:#50ad38;}.cls-152{fill:#50ad37;}.cls-153{fill:#51ae36;}.cls-154{fill:#51ae35;}.cls-155{fill:#51ae34;}.cls-156{fill:#52ae33;}.cls-157{fill:#52ae32;}.cls-158{fill:#fff;}</style><clipPath id="clip-path" transform="translate(69 35.72)"><rect class="cls-1" width="24.96" height="24.97" rx="5.13"/></clipPath><clipPath id="clip-path-2" transform="translate(69 35.72)"><rect class="cls-1" x="-69" y="-35.72" width="162.96" height="98.3"/></clipPath></defs><g id="Layer_2" data-name="Layer 2"><g id="Laag_1" data-name="Laag 1"><g class="cls-2"><g class="cls-3"><polygon class="cls-4" points="0 92.92 3.27 98.31 0 98.31 0 92.92"/><polygon class="cls-4" points="0 91.49 4.14 98.31 3.27 98.31 0 92.92 0 91.49"/><polygon class="cls-5" points="0 90.05 5.01 98.31 4.14 98.31 0 91.49 0 90.05"/><polygon class="cls-6" points="0 88.62 5.88 98.31 5.01 98.31 0 90.05 0 88.62"/><polygon class="cls-7" points="0 87.19 6.75 98.31 5.88 98.31 0 88.62 0 87.19"/><polygon class="cls-8" points="0 85.75 7.62 98.31 6.75 98.31 0 87.19 0 85.75"/><polygon class="cls-9" points="0 84.31 8.5 98.31 7.62 98.31 0 85.75 0 84.31"/><polygon class="cls-10" points="0 82.88 9.37 98.31 8.5 98.31 0 84.31 0 82.88"/><polygon class="cls-11" points="0 81.45 10.24 98.31 9.37 98.31 0 82.88 0 81.45"/><polygon class="cls-12" points="0 80.01 11.11 98.31 10.24 98.31 0 81.45 0 80.01"/><polygon class="cls-13" points="0 78.58 11.98 98.31 11.11 98.31 0 80.01 0 78.58"/><polygon class="cls-14" points="0 77.14 12.85 98.31 11.98 98.31 0 78.58 0 77.14"/><polygon class="cls-15" points="0 75.71 13.72 98.31 12.85 98.31 0 77.14 0 75.71"/><polygon class="cls-16" points="0 74.27 14.6 98.31 13.72 98.31 0 75.71 0 74.27"/><polygon class="cls-17" points="0 72.84 15.47 98.31 14.6 98.31 0 74.27 0 72.84"/><polygon class="cls-18" points="0 71.4 16.34 98.31 15.47 98.31 0 72.84 0 71.4"/><polygon class="cls-19" points="0 69.97 17.21 98.31 16.34 98.31 0 71.4 0 69.97"/><polygon class="cls-20" points="0 68.53 18.08 98.31 17.21 98.31 0 69.97 0 68.53"/><polygon class="cls-21" points="0 67.1 18.95 98.31 18.08 98.31 0 68.53 0 67.1"/><polygon class="cls-22" points="0 65.66 19.82 98.31 18.95 98.31 0 67.1 0 65.66"/><polygon class="cls-23" points="0 64.23 20.69 98.31 19.82 98.31 0 65.66 0 64.23"/><polygon class="cls-24" points="0 62.79 21.57 98.31 20.69 98.31 0 64.23 0 62.79"/><polygon class="cls-25" points="0 61.36 22.44 98.31 21.57 98.31 0 62.79 0 61.36"/><polygon class="cls-26" points="0 59.92 23.31 98.31 22.44 98.31 0 61.36 0 59.92"/><polygon class="cls-27" points="0 58.49 24.18 98.31 23.31 98.31 0 59.92 0 58.49"/><polygon class="cls-28" points="0 57.05 25.05 98.31 24.18 98.31 0 58.49 0 57.05"/><polygon class="cls-29" points="0 55.62 25.92 98.31 25.05 98.31 0 57.05 0 55.62"/><polygon class="cls-30" points="0 54.19 26.79 98.31 25.92 98.31 0 55.62 0 54.19"/><polygon class="cls-31" points="0 52.75 27.66 98.31 26.79 98.31 0 54.19 0 52.75"/><polygon class="cls-32" points="0 51.31 28.54 98.31 27.66 98.31 0 52.75 0 51.31"/><polygon class="cls-33" points="0 49.88 29.41 98.31 28.54 98.31 0 51.31 0 49.88"/><polygon class="cls-34" points="0 48.45 30.28 98.31 29.41 98.31 0 49.88 0 48.45"/><polygon class="cls-35" points="0 47.01 31.15 98.31 30.28 98.31 0 48.45 0 47.01"/><polygon class="cls-36" points="0 45.58 32.02 98.31 31.15 98.31 0 47.01 0 45.58"/><polygon class="cls-37" points="0 44.14 32.89 98.31 32.02 98.31 0 45.58 0 44.14"/><polygon class="cls-38" points="0 42.71 33.76 98.31 32.89 98.31 0 44.14 0 42.71"/><polygon class="cls-39" points="0 41.27 34.64 98.31 33.76 98.31 0 42.71 0 41.27"/><polygon class="cls-40" points="0 39.84 35.51 98.31 34.64 98.31 0 41.27 0 39.84"/><polygon class="cls-41" points="0 38.4 36.38 98.31 35.51 98.31 0 39.84 0 38.4"/><polygon class="cls-42" points="0 36.97 37.25 98.31 36.38 98.31 0 38.4 0 36.97"/><polygon class="cls-43" points="0 35.53 38.12 98.31 37.25 98.31 0 36.97 0 35.53"/><polygon class="cls-44" points="0 34.1 38.99 98.31 38.12 98.31 0 35.53 0 34.1"/><polygon class="cls-45" points="0 32.66 39.86 98.31 38.99 98.31 0 34.1 0 32.66"/><polygon class="cls-46" points="0 31.23 40.73 98.31 39.86 98.31 0 32.66 0 31.23"/><polygon class="cls-47" points="0 29.79 41.61 98.31 40.73 98.31 0 31.23 0 29.79"/><polygon class="cls-48" points="0 28.36 42.48 98.31 41.61 98.31 0 29.79 0 28.36"/><polygon class="cls-49" points="0 26.92 43.35 98.31 42.48 98.31 0 28.36 0 26.92"/><polygon class="cls-50" points="0 25.49 44.22 98.31 43.35 98.31 0 26.92 0 25.49"/><polygon class="cls-51" points="0 24.05 45.09 98.31 44.22 98.31 0 25.49 0 24.05"/><polygon class="cls-52" points="0 22.62 45.96 98.31 45.09 98.31 0 24.05 0 22.62"/><polygon class="cls-53" points="0 21.18 46.83 98.31 45.96 98.31 0 22.62 0 21.18"/><polygon class="cls-54" points="0 19.75 47.71 98.31 46.83 98.31 0 21.18 0 19.75"/><polygon class="cls-55" points="0 18.32 48.58 98.31 47.71 98.31 0 19.75 0 18.32"/><polygon class="cls-56" points="0 16.88 49.45 98.31 48.58 98.31 0 18.32 0 16.88"/><polygon class="cls-57" points="0 15.45 50.32 98.31 49.45 98.31 0 16.88 0 15.45"/><polygon class="cls-58" points="0 14.01 51.19 98.31 50.32 98.31 0 15.45 0 14.01"/><polygon class="cls-59" points="0 12.58 52.06 98.31 51.19 98.31 0 14.01 0 12.58"/><polygon class="cls-60" points="0 11.14 52.93 98.31 52.06 98.31 0 12.58 0 11.14"/><polygon class="cls-61" points="0 9.71 53.8 98.31 52.93 98.31 0 11.14 0 9.71"/><polygon class="cls-62" points="0 8.27 54.68 98.31 53.8 98.31 0 9.71 0 8.27"/><polygon class="cls-63" points="0 6.84 55.55 98.31 54.68 98.31 0 8.27 0 6.84"/><polygon class="cls-64" points="0 5.4 56.42 98.31 55.55 98.31 0 6.84 0 5.4"/><polygon class="cls-65" points="0 3.97 57.29 98.31 56.42 98.31 0 5.4 0 3.97"/><polygon class="cls-66" points="0 2.53 58.16 98.31 57.29 98.31 0 3.97 0 2.53"/><polygon class="cls-67" points="0 1.1 59.03 98.31 58.16 98.31 0 2.53 0 1.1"/><polygon class="cls-68" points="0.2 0 59.9 98.31 59.03 98.31 0 1.1 0 0 0.2 0"/><polygon class="cls-69" points="1.08 0 60.78 98.31 59.9 98.31 0.2 0 1.08 0"/><polygon class="cls-70" points="1.95 0 61.65 98.31 60.78 98.31 1.08 0 1.95 0"/><polygon class="cls-71" points="2.82 0 62.52 98.31 61.65 98.31 1.95 0 2.82 0"/><polygon class="cls-72" points="3.69 0 63.39 98.31 62.52 98.31 2.82 0 3.69 0"/><polygon class="cls-73" points="4.56 0 64.26 98.31 63.39 98.31 3.69 0 4.56 0"/><polygon class="cls-74" points="5.43 0 65.13 98.31 64.26 98.31 4.56 0 5.43 0"/><polygon class="cls-75" points="6.3 0 66 98.31 65.13 98.31 5.43 0 6.3 0"/><polygon class="cls-76" points="7.18 0 66.88 98.31 66 98.31 6.3 0 7.18 0"/><polygon class="cls-77" points="8.05 0 67.75 98.31 66.88 98.31 7.18 0 8.05 0"/><polygon class="cls-78" points="8.92 0 68.62 98.31 67.75 98.31 8.05 0 8.92 0"/><polygon class="cls-79" points="9.79 0 69.49 98.31 68.62 98.31 8.92 0 9.79 0"/><polygon class="cls-80" points="10.66 0 70.36 98.31 69.49 98.31 9.79 0 10.66 0"/><polygon class="cls-81" points="11.53 0 71.23 98.31 70.36 98.31 10.66 0 11.53 0"/><polygon class="cls-82" points="12.4 0 72.1 98.31 71.23 98.31 11.53 0 12.4 0"/><polygon class="cls-83" points="13.28 0 72.97 98.31 72.1 98.31 12.4 0 13.28 0"/><polygon class="cls-84" points="14.15 0 73.85 98.31 72.97 98.31 13.28 0 14.15 0"/><polygon class="cls-85" points="15.02 0 74.72 98.31 73.85 98.31 14.15 0 15.02 0"/><polygon class="cls-86" points="15.89 0 75.59 98.31 74.72 98.31 15.02 0 15.89 0"/><polygon class="cls-87" points="16.76 0 76.46 98.31 75.59 98.31 15.89 0 16.76 0"/><polygon class="cls-88" points="17.63 0 77.33 98.31 76.46 98.31 16.76 0 17.63 0"/><polygon class="cls-89" points="18.5 0 78.2 98.31 77.33 98.31 17.63 0 18.5 0"/><polygon class="cls-90" points="19.37 0 79.07 98.31 78.2 98.31 18.5 0 19.37 0"/><polygon class="cls-91" points="20.25 0 79.94 98.31 79.07 98.31 19.37 0 20.25 0"/><polygon class="cls-92" points="21.12 0 80.82 98.31 79.94 98.31 20.25 0 21.12 0"/><polygon class="cls-93" points="21.99 0 81.69 98.31 80.82 98.31 21.12 0 21.99 0"/><polygon class="cls-94" points="22.86 0 82.56 98.31 81.69 98.31 21.99 0 22.86 0"/><polygon class="cls-95" points="23.73 0 83.43 98.31 82.56 98.31 22.86 0 23.73 0"/><polygon class="cls-96" points="24.6 0 84.3 98.31 83.43 98.31 23.73 0 24.6 0"/><polygon class="cls-97" points="25.47 0 85.17 98.31 84.3 98.31 24.6 0 25.47 0"/><polygon class="cls-98" points="26.34 0 86.04 98.31 85.17 98.31 25.47 0 26.34 0"/><polygon class="cls-99" points="27.22 0 86.92 98.31 86.04 98.31 26.34 0 27.22 0"/><polygon class="cls-100" points="28.09 0 87.79 98.31 86.92 98.31 27.22 0 28.09 0"/><polygon class="cls-101" points="28.96 0 88.66 98.31 87.79 98.31 28.09 0 28.96 0"/><polygon class="cls-102" points="29.83 0 89.53 98.31 88.66 98.31 28.96 0 29.83 0"/><polygon class="cls-103" points="30.7 0 90.4 98.31 89.53 98.31 29.83 0 30.7 0"/><polygon class="cls-104" points="31.57 0 91.27 98.31 90.4 98.31 30.7 0 31.57 0"/><polygon class="cls-105" points="32.44 0 92.14 98.31 91.27 98.31 31.57 0 32.44 0"/><polygon class="cls-106" points="33.31 0 93.02 98.31 92.14 98.31 32.44 0 33.31 0"/><polygon class="cls-107" points="34.19 0 93.89 98.31 93.02 98.31 33.31 0 34.19 0"/><polygon class="cls-108" points="35.06 0 94.76 98.31 93.89 98.31 34.19 0 35.06 0"/><polygon class="cls-109" points="35.93 0 95.63 98.31 94.76 98.31 35.06 0 35.93 0"/><polygon class="cls-110" points="36.8 0 96.5 98.31 95.63 98.31 35.93 0 36.8 0"/><polygon class="cls-111" points="37.67 0 97.37 98.31 96.5 98.31 36.8 0 37.67 0"/><polygon class="cls-112" points="38.54 0 98.24 98.31 97.37 98.31 37.67 0 38.54 0"/><polygon class="cls-113" points="39.41 0 99.11 98.31 98.24 98.31 38.54 0 39.41 0"/><polygon class="cls-114" points="40.29 0 99.98 98.31 99.11 98.31 39.41 0 40.29 0"/><polygon class="cls-115" points="41.16 0 100.86 98.31 99.98 98.31 40.29 0 41.16 0"/><polygon class="cls-116" points="42.03 0 101.73 98.31 100.86 98.31 41.16 0 42.03 0"/><polygon class="cls-117" points="42.9 0 102.6 98.31 101.73 98.31 42.03 0 42.9 0"/><polygon class="cls-118" points="43.77 0 103.47 98.31 102.6 98.31 42.9 0 43.77 0"/><polygon class="cls-119" points="44.64 0 104.34 98.31 103.47 98.31 43.77 0 44.64 0"/><polygon class="cls-120" points="45.51 0 105.21 98.31 104.34 98.31 44.64 0 45.51 0"/><polygon class="cls-121" points="46.38 0 106.08 98.31 105.21 98.31 45.51 0 46.38 0"/><polygon class="cls-122" points="47.26 0 106.96 98.31 106.08 98.31 46.38 0 47.26 0"/><polygon class="cls-123" points="48.13 0 107.83 98.31 106.96 98.31 47.26 0 48.13 0"/><polygon class="cls-124" points="49 0 108.7 98.31 107.83 98.31 48.13 0 49 0"/><polygon class="cls-125" points="49.87 0 109.57 98.31 108.7 98.31 49 0 49.87 0"/><polygon class="cls-126" points="50.74 0 110.44 98.31 109.57 98.31 49.87 0 50.74 0"/><polygon class="cls-127" points="51.61 0 111.31 98.31 110.44 98.31 50.74 0 51.61 0"/><polygon class="cls-128" points="52.48 0 112.18 98.31 111.31 98.31 51.61 0 52.48 0"/><polygon class="cls-129" points="53.36 0 113.06 98.31 112.18 98.31 52.48 0 53.36 0"/><polygon class="cls-130" points="54.23 0 113.93 98.31 113.06 98.31 53.36 0 54.23 0"/><polygon class="cls-131" points="55.1 0 114.8 98.31 113.93 98.31 54.23 0 55.1 0"/><polygon class="cls-132" points="55.97 0 115.67 98.31 114.8 98.31 55.1 0 55.97 0"/><polygon class="cls-133" points="56.84 0 116.54 98.31 115.67 98.31 55.97 0 56.84 0"/><polygon class="cls-134" points="57.71 0 117.41 98.31 116.54 98.31 56.84 0 57.71 0"/><polygon class="cls-135" points="58.58 0 118.28 98.31 117.41 98.31 57.71 0 58.58 0"/><polygon class="cls-136" points="59.45 0 119.16 98.31 118.28 98.31 58.58 0 59.45 0"/><polygon class="cls-137" points="60.33 0 120.03 98.31 119.16 98.31 59.45 0 60.33 0"/><polygon class="cls-138" points="61.2 0 120.9 98.31 120.03 98.31 60.33 0 61.2 0"/><polygon class="cls-139" points="62.07 0 121.77 98.31 120.9 98.31 61.2 0 62.07 0"/><polygon class="cls-140" points="62.94 0 122.64 98.31 121.77 98.31 62.07 0 62.94 0"/><polygon class="cls-141" points="63.81 0 123.51 98.31 122.64 98.31 62.94 0 63.81 0"/><polygon class="cls-142" points="64.68 0 124.38 98.31 123.51 98.31 63.81 0 64.68 0"/><polygon class="cls-143" points="65.56 0 125.25 98.31 124.38 98.31 64.68 0 65.56 0"/><polygon class="cls-144" points="66.43 0 126.13 98.31 125.25 98.31 65.56 0 66.43 0"/><polygon class="cls-145" points="67.3 0 127 98.31 126.13 98.31 66.43 0 67.3 0"/><polygon class="cls-146" points="68.17 0 127.87 98.31 127 98.31 67.3 0 68.17 0"/><polygon class="cls-147" points="69.04 0 128.74 98.31 127.87 98.31 68.17 0 69.04 0"/><polygon class="cls-148" points="69.91 0 129.61 98.31 128.74 98.31 69.04 0 69.91 0"/><polygon class="cls-149" points="70.78 0 130.48 98.31 129.61 98.31 69.91 0 70.78 0"/><polygon class="cls-150" points="71.65 0 131.35 98.31 130.48 98.31 70.78 0 71.65 0"/><polygon class="cls-151" points="72.53 0 132.22 98.31 131.35 98.31 71.65 0 72.53 0"/><polygon class="cls-152" points="73.4 0 133.1 98.31 132.22 98.31 72.53 0 73.4 0"/><polygon class="cls-153" points="74.27 0 133.97 98.31 133.1 98.31 73.4 0 74.27 0"/><polygon class="cls-154" points="75.14 0 134.84 98.31 133.97 98.31 74.27 0 75.14 0"/><polygon class="cls-155" points="76.01 0 135.71 98.31 134.84 98.31 75.14 0 76.01 0"/><polygon class="cls-156" points="76.88 0 136.58 98.31 135.71 98.31 76.01 0 76.88 0"/><polygon class="cls-157" points="77.75 0 137.45 98.31 136.58 98.31 76.88 0 77.75 0"/><polygon class="cls-157" points="137.45 98.31 77.75 0 162.96 0 162.96 98.31 137.45 98.31"/></g></g><path class="cls-158" d="M3.74,9.45H7.49V21.51H3.74Zm1.87-6A2.17,2.17,0,1,1,3.44,5.63,2.17,2.17,0,0,1,5.61,3.46" transform="translate(69 35.72)"/><path class="cls-158" d="M9.84,9.45h3.59V11.1h.05A4,4,0,0,1,17,9.15c3.79,0,4.49,2.5,4.49,5.75v6.61H17.78V15.65c0-1.4,0-3.2-2-3.2s-2.25,1.52-2.25,3.1v6H9.84Z" transform="translate(69 35.72)"/></g></g></svg>